# xmcd
#
# Track frame offsets: 
#        150
#        13419
#        27274
#        42894
#        57044
#        71341
#        83711
#        96829
#        108279
#        121192
#        135312
#        148993
#        163111
#        176570
#        190509
#        204227
#        219203
#        233806
#        246988
#        259660
#
# Disc length: 3640 seconds
#
# Revision: 1
# Processed by: cddbd v1.5.2PL0 Copyright (c) Steve Scherf et al.
# Submitted via: ExactAudioCopy v1.1
#
DISCID=0c0e3614
DTITLE=Various Artist - 20 Classic Blues Songs (Tefteller) - Volume 1
DTITLE=3
DYEAR=2015
DGENRE=Blues
TTITLE0=Jim Jackson - My Monday Blues (mono)
TTITLE1=Blind Willie Johnson - When The War Was On (mono)
TTITLE2=Charlie Kyle - Walking Blues (mono)
TTITLE3=Barbecue Bob - Atlanta Moan (mono)
TTITLE4=Papa Charlie McCoy - Boogie Woogie (mono)
TTITLE5=Curly Weaver and Ruth Willis - Some Cold Rainy Day (mono)
TTITLE6=Blind Blake - Wabash Rag (mono)
TTITLE7=Blind Lemon Jefferson - 'Lectric Chair Blues (mono)
TTITLE8=Jed Davenport and His Beale Street Jug Band - Beale Street Break
TTITLE8=down (mono)
TTITLE9=Spark Plug Smith - Vampire Women (mono)
TTITLE10=Ma Rainey - Georga Cake Walk (mono)
TTITLE11=Black Billy Sunday - The High Cost Of Sin (mono)
TTITLE12=Black Billy Sunday - Will You Spend Your Eternity In Hell (mo
TTITLE12=no)
TTITLE13=Hattie Hyde - Special Question Blues (mono)
TTITLE14=Hattie Hyde - T and N O Blues (mono)
TTITLE15=Charlie Kyle - No Baby (mono)
TTITLE16=Papa Charlie McCoy - Country Guy Blues (mono)
TTITLE17=Blind Lemon Jefferson - See That My Grave Is Kept Clean (mono
TTITLE17=)
TTITLE18=Jaydee Short - Tar Road Blues (mono)
TTITLE19=Jaydee Short - Flaggin' It To Georgia (mono)
EXTD=
EXTT0=
EXTT1=
EXTT2=
EXTT3=
EXTT4=
EXTT5=
EXTT6=
EXTT7=
EXTT8=
EXTT9=
EXTT10=
EXTT11=
EXTT12=
EXTT13=
EXTT14=
EXTT15=
EXTT16=
EXTT17=
EXTT18=
EXTT19=
PLAYORDER=
